<?xml version="1.0" encoding="iso-8859-1"?>
<!-- Uploaded to: SVG Repo, www.svgrepo.com, Generator: SVG Repo Mixer Tools -->
<svg fill="#000000" height="50px" width="80px" version="1.1" id="Layer_1" xmlns="http://www.w3.org/2000/svg" xmlns:xlink="http://www.w3.org/1999/xlink" 
	 viewBox="0 0 490.667 490.667" xml:space="preserve">
<g>
	<g>
		<g>
			<path d="M248.448,362.496c-32.597,1.045-63.168-11.264-86.08-34.197c-22.912-22.933-35.072-53.504-34.197-86.08
				c0.149-5.888-4.501-10.795-10.389-10.944c-5.056,0.299-10.795,4.501-10.944,10.389c-1.003,38.507,13.333,74.624,40.448,101.717
				c26.197,26.197,60.843,40.491,97.899,40.491c1.259,0,2.539,0,3.819-0.043c5.888-0.149,10.539-5.056,10.389-10.944
				C259.243,366.976,254.123,362.603,248.448,362.496z"/>
			<path d="M230.144,107.541c-5.845,0.661-10.069,5.909-9.429,11.776c0.64,5.845,5.824,10.048,11.776,9.429
				c35.563-3.883,70.549,8.341,95.829,33.6c25.259,25.28,37.504,60.203,33.579,95.829c-0.661,5.867,3.584,11.136,9.429,11.776
				c0.384,0.043,0.789,0.064,1.173,0.064c5.376,0,9.984-4.032,10.581-9.515c4.629-42.091-9.835-83.371-39.701-113.237
				C313.515,117.397,272.32,102.955,230.144,107.541z"/>
			<path d="M462.827,209.067c-7.552-5.568-16.981-12.523-18.219-17.109c-1.344-5.035,3.456-16.128,7.339-25.024
				c6.635-15.296,13.504-31.104,5.888-44.288c-7.723-13.355-25.003-15.296-41.728-17.173c-9.515-1.067-21.376-2.389-24.939-5.952
				c-3.563-3.563-4.885-15.403-5.952-24.939c-1.877-16.725-3.84-34.005-17.173-41.728c-13.205-7.659-28.992-0.768-44.267,5.888
				c-8.875,3.861-19.947,8.683-25.024,7.339c-4.608-1.216-11.563-10.645-17.131-18.219C272,14.805,261.077,0,245.333,0
				s-26.667,14.805-36.267,27.84c-5.568,7.552-12.523,16.981-17.109,18.219c-5.035,1.28-16.128-3.456-25.024-7.339
				c-15.275-6.656-31.083-13.525-44.288-5.888c-13.355,7.723-15.296,25.003-17.173,41.728c-1.067,9.515-2.389,21.376-5.952,24.939
				c-3.563,3.563-15.403,4.885-24.939,5.952c-16.725,1.877-34.005,3.84-41.728,17.173c-7.637,13.163-0.768,28.971,5.888,44.267
				c3.861,8.896,8.683,19.968,7.339,25.024c-1.216,4.608-10.645,11.563-18.219,17.131C14.805,218.667,0,229.589,0,245.333
				S14.805,272,27.84,281.6c7.552,5.568,16.981,12.523,18.219,17.109c1.344,5.035-3.456,16.128-7.339,25.024
				c-6.635,15.296-13.504,31.104-5.888,44.288c7.723,13.355,25.003,15.296,41.728,17.173c9.515,1.067,21.376,2.389,24.939,5.952
				c3.563,3.563,4.885,15.424,5.952,24.939c1.877,16.725,3.819,34.005,17.152,41.728c13.184,7.616,28.992,0.768,44.288-5.888
				c8.875-3.861,19.947-8.661,25.024-7.339c4.608,1.216,11.563,10.645,17.131,18.219c9.621,13.056,20.544,27.861,36.288,27.861
				s26.667-14.805,36.288-27.84c5.568-7.552,12.523-16.981,17.109-18.219c5.013-1.387,16.107,3.456,25.024,7.339
				c15.296,6.635,31.061,13.547,44.288,5.888c13.355-7.723,15.296-25.003,17.173-41.728c1.045-9.536,2.389-21.376,5.931-24.939
				c3.541-3.563,15.403-4.885,24.939-5.952c16.725-1.877,34.005-3.84,41.728-17.173c7.637-13.163,0.768-28.971-5.888-44.267
				c-3.861-8.896-8.683-19.968-7.339-25.024c1.216-4.608,10.645-11.563,18.219-17.131c13.056-9.621,27.861-20.544,27.861-36.288
				S475.861,218.667,462.827,209.067z M450.176,264.448c-11.307,8.341-23.019,16.96-26.176,28.779
				c-3.285,12.245,2.645,25.877,8.384,39.061c3.669,8.448,9.216,21.205,6.997,25.067c-2.325,4.032-16.363,5.611-25.643,6.656
				c-14.165,1.6-28.821,3.243-37.653,12.075s-10.453,23.467-12.053,37.632c-1.045,9.28-2.624,23.317-6.656,25.643
				c-3.861,2.261-16.64-3.328-25.088-6.997c-13.184-5.739-26.795-11.648-39.061-8.384c-11.819,3.157-20.437,14.869-28.779,26.176
				c-5.653,7.616-14.165,19.179-19.115,19.179s-13.461-11.563-19.115-19.179c-8.341-11.307-16.96-23.019-28.779-26.176
				c-2.432-0.661-4.907-0.939-7.424-0.939c-10.197,0-21.056,4.715-31.616,9.365c-8.469,3.669-21.269,9.195-25.088,6.997
				c-4.032-2.347-5.611-16.363-6.635-25.643c-1.6-14.165-3.243-28.821-12.075-37.653c-8.832-8.832-23.488-10.475-37.653-12.075
				c-9.28-1.045-23.317-2.624-25.643-6.656c-2.24-3.861,3.328-16.64,6.997-25.088c5.717-13.184,11.648-26.816,8.384-39.061
				c-3.157-11.819-14.869-20.437-26.176-28.779c-7.616-5.653-19.179-14.165-19.179-19.115s11.563-13.461,19.136-19.093
				c11.307-8.341,23.019-16.96,26.176-28.779c3.285-12.245-2.645-25.877-8.384-39.061c-3.669-8.448-9.216-21.205-6.997-25.067
				c2.347-4.032,16.363-5.611,25.643-6.656c14.165-1.6,28.821-3.243,37.653-12.075c8.832-8.832,10.475-23.488,12.075-37.653
				c1.045-9.28,2.624-23.317,6.656-25.643c3.861-2.197,16.64,3.328,25.088,6.997c13.184,5.739,26.773,11.648,39.061,8.384
				c11.819-3.157,20.437-14.869,28.779-26.176c5.653-7.616,14.165-19.179,19.115-19.179s13.461,11.563,19.093,19.136
				c8.341,11.307,16.96,23.019,28.779,26.176c12.267,3.349,25.877-2.624,39.061-8.384c8.448-3.691,21.205-9.216,25.067-6.997
				c4.032,2.347,5.611,16.363,6.656,25.643c1.6,14.165,3.243,28.821,12.075,37.653c8.832,8.832,23.488,10.475,37.653,12.075
				c9.28,1.045,23.317,2.624,25.643,6.656c2.24,3.861-3.328,16.64-6.997,25.088c-5.717,13.184-11.648,26.816-8.384,39.061
				c3.157,11.819,14.869,20.437,26.176,28.779c7.616,5.653,19.179,14.165,19.179,19.115S457.771,258.795,450.176,264.448z"/>
		</g>
	</g>
</g>
</svg>