<?xml version="1.0" encoding="iso-8859-1"?>
<!-- Uploaded to: SVG Repo, www.svgrepo.com, Generator: SVG Repo Mixer Tools -->
<svg fill="#000000" height="50px" width="80px" version="1.1" id="Layer_1" xmlns="http://www.w3.org/2000/svg" xmlns:xlink="http://www.w3.org/1999/xlink" 
	 viewBox="0 0 512.008 512.008" xml:space="preserve">
<g>
	<g>
		<g>
			<path d="M447.209,497.259l-73.749-179.093c0.981-2.283,2.005-4.267,3.221-5.483c2.859-2.88,9.621-4.907,16.171-6.891
				c10.88-3.285,23.211-7.019,29.419-17.749c6.144-10.603,3.264-23.061,0.704-34.069c-1.557-6.72-3.179-13.717-2.091-17.792
				c1.003-3.733,5.952-9.003,10.325-13.653c7.872-8.363,16.789-17.856,16.789-30.528c0-12.651-8.917-22.144-16.789-30.528
				c-4.373-4.672-9.323-9.941-10.325-13.675c-1.088-4.075,0.533-11.072,2.091-17.792c2.56-11.008,5.461-23.467-0.683-34.069
				c-6.208-10.709-18.539-14.443-29.44-17.728c-6.549-1.984-13.312-4.032-16.171-6.891c-2.859-2.88-4.907-9.643-6.891-16.192
				c-3.307-10.88-7.04-23.232-17.771-29.44c-10.56-6.123-23.019-3.2-34.027-0.683c-6.741,1.579-13.76,3.157-17.792,2.091
				c-3.733-0.96-9.003-5.931-13.653-10.304C278.163,8.917,268.649,0,255.998,0s-22.165,8.917-30.549,16.789
				c-4.651,4.373-9.92,9.323-13.632,10.304c-4.139,1.045-11.072-0.533-17.813-2.091c-10.965-2.539-23.445-5.419-34.048,0.683
				c-10.731,6.208-14.464,18.539-17.749,29.44c-1.984,6.549-4.032,13.291-6.891,16.171c-2.859,2.88-9.621,4.907-16.171,6.891
				c-10.88,3.285-23.211,7.019-29.419,17.749c-6.144,10.603-3.264,23.061-0.704,34.069c1.557,6.72,3.179,13.717,2.091,17.792
				c-1.003,3.733-5.952,9.003-10.325,13.653c-7.872,8.384-16.789,17.877-16.789,30.549c0,12.651,8.917,22.144,16.789,30.528
				c4.373,4.672,9.323,9.941,10.325,13.675c1.088,4.075-0.533,11.072-2.091,17.792c-2.56,11.008-5.461,23.467,0.683,34.069
				c6.208,10.709,18.539,14.443,29.44,17.728c6.549,1.984,13.312,4.032,16.171,6.891c1.216,1.216,2.24,3.221,3.221,5.504
				L64.809,497.259c-1.685,4.117-0.661,8.853,2.603,11.883c2.005,1.877,4.608,2.859,7.253,2.859c1.621,0,3.264-0.384,4.779-1.131
				l79.787-39.893l58.859,39.232c2.709,1.813,6.123,2.283,9.195,1.28c3.115-1.003,5.568-3.349,6.72-6.4l23.296-62.123l20.587,61.76
				c1.045,3.136,3.52,5.611,6.656,6.699c3.136,1.088,6.613,0.64,9.365-1.216l58.859-39.232l79.787,39.893
				c1.515,0.747,3.157,1.131,4.779,1.131c2.645,0,5.248-0.981,7.275-2.859C447.87,506.112,448.894,501.355,447.209,497.259z
				 M246.035,412.245l-27.285,72.747l-52.821-35.2c-3.179-2.112-7.253-2.368-10.688-0.661l-59.861,29.931l54.251-131.733
				c2.56,4.352,5.717,8.299,10.347,10.987c10.56,6.165,23.04,3.2,34.027,0.683c6.741-1.6,13.739-3.2,17.792-2.091
				c3.733,0.96,9.003,5.931,13.653,10.304c3.008,2.816,6.229,5.653,9.621,8.277c0.085,0.405,0.021,0.832,0.149,1.237l11.477,34.453
				C246.505,411.563,246.185,411.84,246.035,412.245z M255.998,362.667c-4.203,0-10.432-5.845-15.936-11.008
				c-6.784-6.379-13.824-12.992-22.741-15.381c-2.88-0.768-5.803-1.088-8.725-1.088c-6.464,0-13.013,1.515-19.435,2.987
				c-6.805,1.6-15.232,3.563-18.539,1.643c-3.435-2.005-5.867-10.048-8.021-17.173c-2.731-9.067-5.568-18.411-12.224-25.088
				c-6.635-6.635-16.021-9.472-25.067-12.224c-7.104-2.155-15.168-4.587-17.152-8c-1.899-3.307,0.064-11.755,1.643-18.539
				c2.155-9.28,4.395-18.88,1.92-28.117c-2.389-8.917-9.003-15.957-15.381-22.763c-5.163-5.483-11.008-11.712-11.008-15.915
				s5.845-10.432,11.008-15.936c6.4-6.784,12.992-13.824,15.381-22.741c2.475-9.195,0.235-18.816-1.92-28.096
				c-1.579-6.784-3.541-15.253-1.621-18.56c1.984-3.435,10.027-5.867,17.131-8.021c9.067-2.731,18.432-5.547,25.088-12.224
				c6.656-6.656,9.493-16.021,12.224-25.088c2.133-7.104,4.565-15.147,8-17.152c3.328-1.92,11.755,0.064,18.56,1.643
				c9.301,2.155,18.88,4.395,28.139,1.92c8.917-2.411,15.936-9.003,22.741-15.381c5.504-5.184,11.733-11.029,15.936-11.029
				s10.432,5.845,15.979,11.029c6.784,6.379,13.824,12.992,22.741,15.381c9.216,2.475,18.816,0.235,28.117-1.92
				c6.805-1.6,15.253-3.563,18.539-1.643c3.435,2.005,5.867,10.048,8.021,17.173c2.731,9.067,5.568,18.411,12.224,25.088
				c6.635,6.635,16.021,9.472,25.067,12.224c7.104,2.155,15.168,4.587,17.152,8c1.899,3.307-0.064,11.755-1.643,18.539
				c-2.155,9.28-4.395,18.88-1.92,28.117c2.389,8.917,9.003,15.957,15.381,22.763c5.163,5.483,11.008,11.712,11.008,15.915
				s-5.845,10.432-11.008,15.936c-6.4,6.784-12.992,13.824-15.381,22.741c-2.475,9.195-0.235,18.816,1.92,28.096
				c1.579,6.784,3.541,15.253,1.621,18.56c-1.984,3.435-10.027,5.867-17.131,8.021c-9.067,2.731-18.432,5.547-25.088,12.224
				c-6.656,6.656-9.493,16.021-12.224,25.088c-2.133,7.104-4.565,15.147-8,17.152c-3.307,1.899-11.755-0.064-18.56-1.643
				c-9.28-2.176-18.859-4.395-28.139-1.92c-8.917,2.411-15.936,9.003-22.741,15.381C266.43,356.821,260.201,362.667,255.998,362.667
				z M356.777,449.131c-3.435-1.707-7.509-1.472-10.688,0.661l-52.395,34.923l-33.792-101.376
				c10.688-1.621,19.179-9.109,26.645-16.128c4.651-4.373,9.92-9.323,13.632-10.304c4.096-1.088,11.051,0.512,17.813,2.091
				c10.987,2.539,23.445,5.397,34.048-0.683c4.629-2.688,7.808-6.613,10.347-10.987l54.251,131.733L356.777,449.131z"/>
			<path d="M277.331,170.667c0-23.531-19.136-42.667-42.667-42.667c-23.531,0-42.667,19.136-42.667,42.667v42.667
				c0,23.531,19.136,42.667,42.667,42.667c23.531,0,42.667-19.136,42.667-42.667V170.667z M255.998,213.333
				c0,11.776-9.579,21.333-21.333,21.333c-11.755,0-21.333-9.557-21.333-21.333v-42.667c0-11.776,9.579-21.333,21.333-21.333
				c11.755,0,21.333,9.557,21.333,21.333V213.333z"/>
			<path d="M341.331,256c23.531,0,42.667-19.136,42.667-42.667v-42.667c0-23.531-19.136-42.667-42.667-42.667
				c-23.531,0-42.667,19.136-42.667,42.667v42.667C298.665,236.864,317.801,256,341.331,256z M319.998,170.667
				c0-11.776,9.579-21.333,21.333-21.333c11.755,0,21.333,9.557,21.333,21.333v42.667c0,11.776-9.579,21.333-21.333,21.333
				c-11.755,0-21.333-9.557-21.333-21.333V170.667z"/>
			<path d="M164.094,128.811c-3.989-1.643-8.555-0.768-11.627,2.304l-21.333,21.333c-4.16,4.16-4.16,10.923,0,15.083
				c4.16,4.16,10.923,4.16,15.083,0l3.115-3.115v80.917c0,5.888,4.779,10.667,10.667,10.667s10.667-4.779,10.688-10.667V138.667
				C170.686,134.357,168.083,130.453,164.094,128.811z"/>
		</g>
	</g>
</g>
</svg>